ISO-10303-21;
HEADER;
/* Generated by software containing ST-Developer
 * from STEP Tools, Inc. (www.steptools.com) 
 */
/* OPTION: using custom renumber hook */

FILE_DESCRIPTION(
/* description */ ('STEP AP242 Edition 2',
'CAx-IF Rec.Pracs.---Representation and Presentation of Product Manufa
cturing Information (PMI)---4.0---2014-10-13',
'CAx-IF Rec.Pracs.---3D Tessellated Geometry---0.4---2014-09-14','2;1',
'CAx-IF Rec.Pracs.---User Defined Attributes---1.5---2016-08-15'),
/* implementation_level */ '2;1');

FILE_NAME(
/* name */ 'Anemometro',
/* time_stamp */ '2026-07-14T21:39:48Z',
/* author */ (''),
/* organization */ (''),
/* preprocessor_version */ 'ST-DEVELOPER v20',
/* originating_system */ 'ONSHAPE BY PTC INC, 1.217',
/* authorisation */ '  ');

FILE_SCHEMA (('AP242_MANAGED_MODEL_BASED_3D_ENGINEERING_MIM_LF { 1 0 10303 442 3 1 4 }'));
ENDSEC;

DATA;
#10=VERTEX_LOOP('',#372);
#11=VERTEX_LOOP('',#375);
#12=VERTEX_LOOP('',#378);
#13=SPHERICAL_SURFACE('',#626,0.0129614813968157);
#14=SPHERICAL_SURFACE('',#639,0.012);
#15=SPHERICAL_SURFACE('',#642,0.0129614813968157);
#16=SPHERICAL_SURFACE('',#644,0.012);
#17=SPHERICAL_SURFACE('',#647,0.0129614813968157);
#18=SPHERICAL_SURFACE('',#649,0.012);
#19=LINE('',#845,#55);
#20=LINE('',#848,#56);
#21=LINE('',#850,#57);
#22=LINE('',#852,#58);
#23=LINE('',#854,#59);
#24=LINE('',#856,#60);
#25=LINE('',#858,#61);
#26=LINE('',#860,#62);
#27=LINE('',#862,#63);
#28=LINE('',#864,#64);
#29=LINE('',#866,#65);
#30=LINE('',#868,#66);
#31=LINE('',#870,#67);
#32=LINE('',#872,#68);
#33=LINE('',#874,#69);
#34=LINE('',#876,#70);
#35=LINE('',#878,#71);
#36=LINE('',#879,#72);
#37=LINE('',#893,#73);
#38=LINE('',#896,#74);
#39=LINE('',#898,#75);
#40=LINE('',#902,#76);
#41=LINE('',#905,#77);
#42=LINE('',#909,#78);
#43=LINE('',#917,#79);
#44=LINE('',#921,#80);
#45=LINE('',#923,#81);
#46=LINE('',#925,#82);
#47=LINE('',#929,#83);
#48=LINE('',#932,#84);
#49=LINE('',#934,#85);
#50=LINE('',#938,#86);
#51=LINE('',#941,#87);
#52=LINE('',#945,#88);
#53=LINE('',#947,#89);
#54=LINE('',#951,#90);
#55=VECTOR('',#676,1.);
#56=VECTOR('',#677,1.);
#57=VECTOR('',#678,1.);
#58=VECTOR('',#679,1.);
#59=VECTOR('',#682,1.);
#60=VECTOR('',#683,1.);
#61=VECTOR('',#684,1.);
#62=VECTOR('',#687,1.);
#63=VECTOR('',#688,1.);
#64=VECTOR('',#689,1.);
#65=VECTOR('',#692,1.);
#66=VECTOR('',#693,1.);
#67=VECTOR('',#694,1.);
#68=VECTOR('',#697,1.);
#69=VECTOR('',#698,1.);
#70=VECTOR('',#699,1.);
#71=VECTOR('',#702,1.);
#72=VECTOR('',#703,1.);
#73=VECTOR('',#722,1.);
#74=VECTOR('',#723,1.);
#75=VECTOR('',#724,1.);
#76=VECTOR('',#729,1.);
#77=VECTOR('',#730,1.);
#78=VECTOR('',#733,1.);
#79=VECTOR('',#744,1.);
#80=VECTOR('',#747,1.);
#81=VECTOR('',#750,1.);
#82=VECTOR('',#751,1.);
#83=VECTOR('',#756,1.);
#84=VECTOR('',#757,1.);
#85=VECTOR('',#758,1.);
#86=VECTOR('',#763,1.);
#87=VECTOR('',#764,1.);
#88=VECTOR('',#767,1.);
#89=VECTOR('',#770,1.);
#90=VECTOR('',#773,1.);
#91=SHAPE_REPRESENTATION_RELATIONSHIP('','',#582,#93);
#92=SHAPE_REPRESENTATION_RELATIONSHIP('','',#583,#94);
#93=ADVANCED_BREP_SHAPE_REPRESENTATION('',(#578),#992);
#94=ADVANCED_BREP_SHAPE_REPRESENTATION('',(#579),#993);
#95=PLANE('',#591);
#96=PLANE('',#592);
#97=PLANE('',#594);
#98=PLANE('',#595);
#99=PLANE('',#596);
#100=PLANE('',#597);
#101=PLANE('',#598);
#102=PLANE('',#599);
#103=PLANE('',#600);
#104=PLANE('',#602);
#105=PLANE('',#606);
#106=PLANE('',#608);
#107=PLANE('',#610);
#108=PLANE('',#612);
#109=PLANE('',#615);
#110=PLANE('',#618);
#111=PLANE('',#620);
#112=PLANE('',#622);
#113=PLANE('',#624);
#114=PLANE('',#629);
#115=PLANE('',#636);
#116=PLANE('',#641);
#117=PLANE('',#646);
#118=PLANE('',#651);
#119=ORIENTED_EDGE('',*,*,#257,.F.);
#120=ORIENTED_EDGE('',*,*,#258,.T.);
#121=ORIENTED_EDGE('',*,*,#259,.T.);
#122=ORIENTED_EDGE('',*,*,#260,.F.);
#123=ORIENTED_EDGE('',*,*,#257,.T.);
#124=ORIENTED_EDGE('',*,*,#259,.F.);
#125=ORIENTED_EDGE('',*,*,#258,.F.);
#126=ORIENTED_EDGE('',*,*,#260,.T.);
#127=ORIENTED_EDGE('',*,*,#261,.F.);
#128=ORIENTED_EDGE('',*,*,#262,.T.);
#129=ORIENTED_EDGE('',*,*,#263,.T.);
#130=ORIENTED_EDGE('',*,*,#264,.F.);
#131=ORIENTED_EDGE('',*,*,#265,.F.);
#132=ORIENTED_EDGE('',*,*,#264,.T.);
#133=ORIENTED_EDGE('',*,*,#266,.T.);
#134=ORIENTED_EDGE('',*,*,#267,.F.);
#135=ORIENTED_EDGE('',*,*,#268,.F.);
#136=ORIENTED_EDGE('',*,*,#267,.T.);
#137=ORIENTED_EDGE('',*,*,#269,.T.);
#138=ORIENTED_EDGE('',*,*,#270,.F.);
#139=ORIENTED_EDGE('',*,*,#271,.F.);
#140=ORIENTED_EDGE('',*,*,#270,.T.);
#141=ORIENTED_EDGE('',*,*,#272,.T.);
#142=ORIENTED_EDGE('',*,*,#273,.F.);
#143=ORIENTED_EDGE('',*,*,#274,.F.);
#144=ORIENTED_EDGE('',*,*,#273,.T.);
#145=ORIENTED_EDGE('',*,*,#275,.T.);
#146=ORIENTED_EDGE('',*,*,#276,.F.);
#147=ORIENTED_EDGE('',*,*,#277,.F.);
#148=ORIENTED_EDGE('',*,*,#276,.T.);
#149=ORIENTED_EDGE('',*,*,#278,.T.);
#150=ORIENTED_EDGE('',*,*,#262,.F.);
#151=ORIENTED_EDGE('',*,*,#279,.F.);
#152=ORIENTED_EDGE('',*,*,#263,.F.);
#153=ORIENTED_EDGE('',*,*,#278,.F.);
#154=ORIENTED_EDGE('',*,*,#275,.F.);
#155=ORIENTED_EDGE('',*,*,#272,.F.);
#156=ORIENTED_EDGE('',*,*,#269,.F.);
#157=ORIENTED_EDGE('',*,*,#266,.F.);
#158=ORIENTED_EDGE('',*,*,#280,.F.);
#159=ORIENTED_EDGE('',*,*,#277,.T.);
#160=ORIENTED_EDGE('',*,*,#261,.T.);
#161=ORIENTED_EDGE('',*,*,#265,.T.);
#162=ORIENTED_EDGE('',*,*,#268,.T.);
#163=ORIENTED_EDGE('',*,*,#271,.T.);
#164=ORIENTED_EDGE('',*,*,#274,.T.);
#165=ORIENTED_EDGE('',*,*,#280,.T.);
#166=ORIENTED_EDGE('',*,*,#281,.F.);
#167=ORIENTED_EDGE('',*,*,#282,.F.);
#168=ORIENTED_EDGE('',*,*,#281,.T.);
#169=ORIENTED_EDGE('',*,*,#283,.F.);
#170=ORIENTED_EDGE('',*,*,#284,.T.);
#171=ORIENTED_EDGE('',*,*,#285,.T.);
#172=ORIENTED_EDGE('',*,*,#286,.F.);
#173=ORIENTED_EDGE('',*,*,#287,.F.);
#174=ORIENTED_EDGE('',*,*,#288,.T.);
#175=ORIENTED_EDGE('',*,*,#289,.F.);
#176=ORIENTED_EDGE('',*,*,#290,.F.);
#177=ORIENTED_EDGE('',*,*,#291,.F.);
#178=ORIENTED_EDGE('',*,*,#283,.T.);
#179=ORIENTED_EDGE('',*,*,#292,.F.);
#180=ORIENTED_EDGE('',*,*,#288,.F.);
#181=ORIENTED_EDGE('',*,*,#293,.F.);
#182=ORIENTED_EDGE('',*,*,#294,.T.);
#183=ORIENTED_EDGE('',*,*,#295,.F.);
#184=ORIENTED_EDGE('',*,*,#296,.F.);
#185=ORIENTED_EDGE('',*,*,#294,.F.);
#186=ORIENTED_EDGE('',*,*,#297,.T.);
#187=ORIENTED_EDGE('',*,*,#298,.T.);
#188=ORIENTED_EDGE('',*,*,#299,.F.);
#189=ORIENTED_EDGE('',*,*,#300,.F.);
#190=ORIENTED_EDGE('',*,*,#301,.T.);
#191=ORIENTED_EDGE('',*,*,#302,.T.);
#192=ORIENTED_EDGE('',*,*,#303,.F.);
#193=ORIENTED_EDGE('',*,*,#304,.F.);
#194=ORIENTED_EDGE('',*,*,#305,.T.);
#195=ORIENTED_EDGE('',*,*,#306,.F.);
#196=ORIENTED_EDGE('',*,*,#307,.F.);
#197=ORIENTED_EDGE('',*,*,#308,.F.);
#198=ORIENTED_EDGE('',*,*,#296,.T.);
#199=ORIENTED_EDGE('',*,*,#309,.F.);
#200=ORIENTED_EDGE('',*,*,#310,.F.);
#201=ORIENTED_EDGE('',*,*,#311,.F.);
#202=ORIENTED_EDGE('',*,*,#286,.T.);
#203=ORIENTED_EDGE('',*,*,#312,.F.);
#204=ORIENTED_EDGE('',*,*,#289,.T.);
#205=ORIENTED_EDGE('',*,*,#292,.T.);
#206=ORIENTED_EDGE('',*,*,#313,.F.);
#207=ORIENTED_EDGE('',*,*,#298,.F.);
#208=ORIENTED_EDGE('',*,*,#314,.T.);
#209=ORIENTED_EDGE('',*,*,#290,.T.);
#210=ORIENTED_EDGE('',*,*,#312,.T.);
#211=ORIENTED_EDGE('',*,*,#285,.F.);
#212=ORIENTED_EDGE('',*,*,#315,.T.);
#213=ORIENTED_EDGE('',*,*,#307,.T.);
#214=ORIENTED_EDGE('',*,*,#316,.T.);
#215=ORIENTED_EDGE('',*,*,#302,.F.);
#216=ORIENTED_EDGE('',*,*,#317,.T.);
#217=ORIENTED_EDGE('',*,*,#310,.T.);
#218=ORIENTED_EDGE('',*,*,#318,.T.);
#219=ORIENTED_EDGE('',*,*,#319,.F.);
#220=ORIENTED_EDGE('',*,*,#300,.T.);
#221=ORIENTED_EDGE('',*,*,#320,.F.);
#222=ORIENTED_EDGE('',*,*,#305,.F.);
#223=ORIENTED_EDGE('',*,*,#321,.F.);
#224=ORIENTED_EDGE('',*,*,#321,.T.);
#225=ORIENTED_EDGE('',*,*,#311,.T.);
#226=ORIENTED_EDGE('',*,*,#322,.F.);
#227=ORIENTED_EDGE('',*,*,#303,.T.);
#228=ORIENTED_EDGE('',*,*,#316,.F.);
#229=ORIENTED_EDGE('',*,*,#306,.T.);
#230=ORIENTED_EDGE('',*,*,#320,.T.);
#231=ORIENTED_EDGE('',*,*,#323,.F.);
#232=ORIENTED_EDGE('',*,*,#323,.T.);
#233=ORIENTED_EDGE('',*,*,#322,.T.);
#234=ORIENTED_EDGE('',*,*,#324,.F.);
#235=ORIENTED_EDGE('',*,*,#299,.T.);
#236=ORIENTED_EDGE('',*,*,#318,.F.);
#237=ORIENTED_EDGE('',*,*,#309,.T.);
#238=ORIENTED_EDGE('',*,*,#295,.T.);
#239=ORIENTED_EDGE('',*,*,#325,.F.);
#240=ORIENTED_EDGE('',*,*,#325,.T.);
#241=ORIENTED_EDGE('',*,*,#324,.T.);
#242=ORIENTED_EDGE('',*,*,#284,.F.);
#243=ORIENTED_EDGE('',*,*,#291,.T.);
#244=ORIENTED_EDGE('',*,*,#287,.T.);
#245=ORIENTED_EDGE('',*,*,#314,.F.);
#246=ORIENTED_EDGE('',*,*,#297,.F.);
#247=ORIENTED_EDGE('',*,*,#293,.T.);
#248=ORIENTED_EDGE('',*,*,#308,.T.);
#249=ORIENTED_EDGE('',*,*,#317,.F.);
#250=ORIENTED_EDGE('',*,*,#301,.F.);
#251=ORIENTED_EDGE('',*,*,#319,.T.);
#252=ORIENTED_EDGE('',*,*,#304,.T.);
#253=ORIENTED_EDGE('',*,*,#315,.F.);
#254=ORIENTED_EDGE('',*,*,#282,.T.);
#255=ORIENTED_EDGE('',*,*,#279,.T.);
#256=ORIENTED_EDGE('',*,*,#313,.T.);
#257=EDGE_CURVE('',#326,#326,#380,.T.);
#258=EDGE_CURVE('',#327,#327,#381,.T.);
#259=EDGE_CURVE('',#328,#328,#382,.F.);
#260=EDGE_CURVE('',#329,#329,#383,.F.);
#261=EDGE_CURVE('',#330,#331,#19,.T.);
#262=EDGE_CURVE('',#330,#332,#20,.T.);
#263=EDGE_CURVE('',#332,#333,#21,.T.);
#264=EDGE_CURVE('',#331,#333,#22,.T.);
#265=EDGE_CURVE('',#331,#334,#23,.T.);
#266=EDGE_CURVE('',#333,#335,#24,.T.);
#267=EDGE_CURVE('',#334,#335,#25,.T.);
#268=EDGE_CURVE('',#334,#336,#26,.T.);
#269=EDGE_CURVE('',#335,#337,#27,.T.);
#270=EDGE_CURVE('',#336,#337,#28,.T.);
#271=EDGE_CURVE('',#336,#338,#29,.T.);
#272=EDGE_CURVE('',#337,#339,#30,.T.);
#273=EDGE_CURVE('',#338,#339,#31,.T.);
#274=EDGE_CURVE('',#338,#340,#32,.T.);
#275=EDGE_CURVE('',#339,#341,#33,.T.);
#276=EDGE_CURVE('',#340,#341,#34,.T.);
#277=EDGE_CURVE('',#340,#330,#35,.T.);
#278=EDGE_CURVE('',#341,#332,#36,.T.);
#279=EDGE_CURVE('',#342,#342,#384,.F.);
#280=EDGE_CURVE('',#343,#343,#385,.T.);
#281=EDGE_CURVE('',#344,#344,#386,.T.);
#282=EDGE_CURVE('',#345,#345,#387,.T.);
#283=EDGE_CURVE('',#346,#347,#37,.T.);
#284=EDGE_CURVE('',#346,#348,#38,.F.);
#285=EDGE_CURVE('',#348,#349,#39,.T.);
#286=EDGE_CURVE('',#347,#349,#388,.T.);
#287=EDGE_CURVE('',#350,#351,#40,.F.);
#288=EDGE_CURVE('',#350,#352,#41,.T.);
#289=EDGE_CURVE('',#353,#352,#389,.F.);
#290=EDGE_CURVE('',#351,#353,#42,.T.);
#291=EDGE_CURVE('',#346,#350,#390,.F.);
#292=EDGE_CURVE('',#352,#347,#391,.F.);
#293=EDGE_CURVE('',#354,#355,#392,.F.);
#294=EDGE_CURVE('',#354,#356,#43,.T.);
#295=EDGE_CURVE('',#357,#356,#393,.F.);
#296=EDGE_CURVE('',#355,#357,#44,.T.);
#297=EDGE_CURVE('',#354,#358,#45,.F.);
#298=EDGE_CURVE('',#358,#359,#46,.T.);
#299=EDGE_CURVE('',#356,#359,#394,.T.);
#300=EDGE_CURVE('',#360,#361,#47,.T.);
#301=EDGE_CURVE('',#360,#362,#48,.F.);
#302=EDGE_CURVE('',#362,#363,#49,.T.);
#303=EDGE_CURVE('',#361,#363,#395,.T.);
#304=EDGE_CURVE('',#364,#365,#50,.F.);
#305=EDGE_CURVE('',#364,#366,#51,.T.);
#306=EDGE_CURVE('',#367,#366,#396,.F.);
#307=EDGE_CURVE('',#365,#367,#52,.T.);
#308=EDGE_CURVE('',#355,#368,#53,.F.);
#309=EDGE_CURVE('',#369,#357,#397,.F.);
#310=EDGE_CURVE('',#368,#369,#54,.T.);
#311=EDGE_CURVE('',#370,#370,#398,.T.);
#312=EDGE_CURVE('',#353,#349,#399,.F.);
#313=EDGE_CURVE('',#371,#371,#400,.T.);
#314=EDGE_CURVE('',#358,#351,#401,.T.);
#315=EDGE_CURVE('',#348,#365,#402,.T.);
#316=EDGE_CURVE('',#367,#363,#403,.F.);
#317=EDGE_CURVE('',#362,#368,#404,.T.);
#318=EDGE_CURVE('',#369,#359,#405,.F.);
#319=EDGE_CURVE('',#360,#364,#406,.F.);
#320=EDGE_CURVE('',#366,#361,#407,.F.);
#321=EDGE_CURVE('',#373,#373,#408,.T.);
#322=EDGE_CURVE('',#374,#374,#409,.T.);
#323=EDGE_CURVE('',#376,#376,#410,.T.);
#324=EDGE_CURVE('',#377,#377,#411,.T.);
#325=EDGE_CURVE('',#379,#379,#412,.T.);
#326=VERTEX_POINT('',#833);
#327=VERTEX_POINT('',#835);
#328=VERTEX_POINT('',#838);
#329=VERTEX_POINT('',#840);
#330=VERTEX_POINT('',#846);
#331=VERTEX_POINT('',#847);
#332=VERTEX_POINT('',#849);
#333=VERTEX_POINT('',#851);
#334=VERTEX_POINT('',#855);
#335=VERTEX_POINT('',#857);
#336=VERTEX_POINT('',#861);
#337=VERTEX_POINT('',#863);
#338=VERTEX_POINT('',#867);
#339=VERTEX_POINT('',#869);
#340=VERTEX_POINT('',#873);
#341=VERTEX_POINT('',#875);
#342=VERTEX_POINT('',#882);
#343=VERTEX_POINT('',#885);
#344=VERTEX_POINT('',#888);
#345=VERTEX_POINT('',#891);
#346=VERTEX_POINT('',#894);
#347=VERTEX_POINT('',#895);
#348=VERTEX_POINT('',#897);
#349=VERTEX_POINT('',#899);
#350=VERTEX_POINT('',#903);
#351=VERTEX_POINT('',#904);
#352=VERTEX_POINT('',#906);
#353=VERTEX_POINT('',#908);
#354=VERTEX_POINT('',#915);
#355=VERTEX_POINT('',#916);
#356=VERTEX_POINT('',#918);
#357=VERTEX_POINT('',#920);
#358=VERTEX_POINT('',#924);
#359=VERTEX_POINT('',#926);
#360=VERTEX_POINT('',#930);
#361=VERTEX_POINT('',#931);
#362=VERTEX_POINT('',#933);
#363=VERTEX_POINT('',#935);
#364=VERTEX_POINT('',#939);
#365=VERTEX_POINT('',#940);
#366=VERTEX_POINT('',#942);
#367=VERTEX_POINT('',#944);
#368=VERTEX_POINT('',#948);
#369=VERTEX_POINT('',#950);
#370=VERTEX_POINT('',#954);
#371=VERTEX_POINT('',#958);
#372=VERTEX_POINT('',#968);
#373=VERTEX_POINT('',#970);
#374=VERTEX_POINT('',#974);
#375=VERTEX_POINT('',#976);
#376=VERTEX_POINT('',#978);
#377=VERTEX_POINT('',#982);
#378=VERTEX_POINT('',#984);
#379=VERTEX_POINT('',#986);
#380=CIRCLE('',#586,0.00921687836487032);
#381=CIRCLE('',#587,0.00921687836487032);
#382=CIRCLE('',#589,0.002175);
#383=CIRCLE('',#590,0.002175);
#384=CIRCLE('',#601,0.002175);
#385=CIRCLE('',#603,0.00921687836487032);
#386=CIRCLE('',#605,0.00921687836487032);
#387=CIRCLE('',#607,0.00373205080756888);
#388=CIRCLE('',#609,0.0117366945943055);
#389=CIRCLE('',#611,0.0127180973419769);
#390=CIRCLE('',#613,0.00373205080756888);
#391=CIRCLE('',#614,0.0128062484748657);
#392=CIRCLE('',#616,0.00373205080756888);
#393=CIRCLE('',#617,0.0128062484748657);
#394=CIRCLE('',#619,0.0117366945943055);
#395=CIRCLE('',#621,0.0117366945943055);
#396=CIRCLE('',#623,0.0127180973419769);
#397=CIRCLE('',#625,0.0127180973419769);
#398=CIRCLE('',#627,0.0129614813968157);
#399=CIRCLE('',#628,0.0128062484748657);
#400=CIRCLE('',#630,0.002175);
#401=CIRCLE('',#631,0.00373205080756888);
#402=CIRCLE('',#632,0.00373205080756888);
#403=CIRCLE('',#633,0.0128062484748657);
#404=CIRCLE('',#634,0.00373205080756888);
#405=CIRCLE('',#635,0.0128062484748657);
#406=CIRCLE('',#637,0.00373205080756888);
#407=CIRCLE('',#638,0.0128062484748657);
#408=CIRCLE('',#640,0.012);
#409=CIRCLE('',#643,0.0129614813968157);
#410=CIRCLE('',#645,0.012);
#411=CIRCLE('',#648,0.0129614813968157);
#412=CIRCLE('',#650,0.012);
#413=EDGE_LOOP('',(#119));
#414=EDGE_LOOP('',(#120));
#415=EDGE_LOOP('',(#121));
#416=EDGE_LOOP('',(#122));
#417=EDGE_LOOP('',(#123));
#418=EDGE_LOOP('',(#124));
#419=EDGE_LOOP('',(#125));
#420=EDGE_LOOP('',(#126));
#421=EDGE_LOOP('',(#127,#128,#129,#130));
#422=EDGE_LOOP('',(#131,#132,#133,#134));
#423=EDGE_LOOP('',(#135,#136,#137,#138));
#424=EDGE_LOOP('',(#139,#140,#141,#142));
#425=EDGE_LOOP('',(#143,#144,#145,#146));
#426=EDGE_LOOP('',(#147,#148,#149,#150));
#427=EDGE_LOOP('',(#151));
#428=EDGE_LOOP('',(#152,#153,#154,#155,#156,#157));
#429=EDGE_LOOP('',(#158));
#430=EDGE_LOOP('',(#159,#160,#161,#162,#163,#164));
#431=EDGE_LOOP('',(#165));
#432=EDGE_LOOP('',(#166));
#433=EDGE_LOOP('',(#167));
#434=EDGE_LOOP('',(#168));
#435=EDGE_LOOP('',(#169,#170,#171,#172));
#436=EDGE_LOOP('',(#173,#174,#175,#176));
#437=EDGE_LOOP('',(#177,#178,#179,#180));
#438=EDGE_LOOP('',(#181,#182,#183,#184));
#439=EDGE_LOOP('',(#185,#186,#187,#188));
#440=EDGE_LOOP('',(#189,#190,#191,#192));
#441=EDGE_LOOP('',(#193,#194,#195,#196));
#442=EDGE_LOOP('',(#197,#198,#199,#200));
#443=EDGE_LOOP('',(#201));
#444=EDGE_LOOP('',(#202,#203,#204,#205));
#445=EDGE_LOOP('',(#206));
#446=EDGE_LOOP('',(#207,#208,#209,#210,#211,#212,#213,#214,#215,#216,#217,
#218));
#447=EDGE_LOOP('',(#219,#220,#221,#222));
#448=EDGE_LOOP('',(#223));
#449=EDGE_LOOP('',(#224));
#450=EDGE_LOOP('',(#225));
#451=EDGE_LOOP('',(#226));
#452=EDGE_LOOP('',(#227,#228,#229,#230));
#453=EDGE_LOOP('',(#231));
#454=EDGE_LOOP('',(#232));
#455=EDGE_LOOP('',(#233));
#456=EDGE_LOOP('',(#234));
#457=EDGE_LOOP('',(#235,#236,#237,#238));
#458=EDGE_LOOP('',(#239));
#459=EDGE_LOOP('',(#240));
#460=EDGE_LOOP('',(#241));
#461=EDGE_LOOP('',(#242,#243,#244,#245,#246,#247,#248,#249,#250,#251,#252,
#253));
#462=EDGE_LOOP('',(#254));
#463=EDGE_LOOP('',(#255));
#464=EDGE_LOOP('',(#256));
#465=FACE_BOUND('',#413,.T.);
#466=FACE_BOUND('',#414,.T.);
#467=FACE_BOUND('',#415,.T.);
#468=FACE_BOUND('',#416,.T.);
#469=FACE_BOUND('',#417,.T.);
#470=FACE_BOUND('',#418,.T.);
#471=FACE_BOUND('',#419,.T.);
#472=FACE_BOUND('',#420,.T.);
#473=FACE_BOUND('',#421,.T.);
#474=FACE_BOUND('',#422,.T.);
#475=FACE_BOUND('',#423,.T.);
#476=FACE_BOUND('',#424,.T.);
#477=FACE_BOUND('',#425,.T.);
#478=FACE_BOUND('',#426,.T.);
#479=FACE_BOUND('',#427,.T.);
#480=FACE_BOUND('',#428,.T.);
#481=FACE_BOUND('',#429,.T.);
#482=FACE_BOUND('',#430,.T.);
#483=FACE_BOUND('',#431,.T.);
#484=FACE_BOUND('',#432,.T.);
#485=FACE_BOUND('',#433,.T.);
#486=FACE_BOUND('',#434,.T.);
#487=FACE_BOUND('',#435,.T.);
#488=FACE_BOUND('',#436,.T.);
#489=FACE_BOUND('',#437,.T.);
#490=FACE_BOUND('',#438,.T.);
#491=FACE_BOUND('',#439,.T.);
#492=FACE_BOUND('',#440,.T.);
#493=FACE_BOUND('',#441,.T.);
#494=FACE_BOUND('',#442,.T.);
#495=FACE_BOUND('',#443,.T.);
#496=FACE_BOUND('',#444,.T.);
#497=FACE_BOUND('',#445,.T.);
#498=FACE_BOUND('',#446,.T.);
#499=FACE_BOUND('',#447,.T.);
#500=FACE_BOUND('',#10,.T.);
#501=FACE_BOUND('',#448,.T.);
#502=FACE_BOUND('',#449,.T.);
#503=FACE_BOUND('',#450,.T.);
#504=FACE_BOUND('',#451,.T.);
#505=FACE_BOUND('',#452,.T.);
#506=FACE_BOUND('',#11,.T.);
#507=FACE_BOUND('',#453,.T.);
#508=FACE_BOUND('',#454,.T.);
#509=FACE_BOUND('',#455,.T.);
#510=FACE_BOUND('',#456,.T.);
#511=FACE_BOUND('',#457,.T.);
#512=FACE_BOUND('',#12,.T.);
#513=FACE_BOUND('',#458,.T.);
#514=FACE_BOUND('',#459,.T.);
#515=FACE_BOUND('',#460,.T.);
#516=FACE_BOUND('',#461,.T.);
#517=FACE_BOUND('',#462,.T.);
#518=FACE_BOUND('',#463,.T.);
#519=FACE_BOUND('',#464,.T.);
#520=CYLINDRICAL_SURFACE('',#585,0.00921687836487032);
#521=CYLINDRICAL_SURFACE('',#588,0.002175);
#522=CYLINDRICAL_SURFACE('',#604,0.00921687836487032);
#523=CYLINDRICAL_SURFACE('',#652,0.00373205080756888);
#524=CYLINDRICAL_SURFACE('',#653,0.002175);
#525=ADVANCED_FACE('',(#465,#466),#520,.T.);
#526=ADVANCED_FACE('',(#467,#468),#521,.F.);
#527=ADVANCED_FACE('',(#469,#470),#95,.T.);
#528=ADVANCED_FACE('',(#471,#472),#96,.F.);
#529=ADVANCED_FACE('',(#473),#97,.F.);
#530=ADVANCED_FACE('',(#474),#98,.F.);
#531=ADVANCED_FACE('',(#475),#99,.F.);
#532=ADVANCED_FACE('',(#476),#100,.F.);
#533=ADVANCED_FACE('',(#477),#101,.F.);
#534=ADVANCED_FACE('',(#478),#102,.F.);
#535=ADVANCED_FACE('',(#479,#480),#103,.F.);
#536=ADVANCED_FACE('',(#481,#482),#104,.F.);
#537=ADVANCED_FACE('',(#483,#484),#522,.T.);
#538=ADVANCED_FACE('',(#485,#486),#105,.T.);
#539=ADVANCED_FACE('',(#487),#106,.T.);
#540=ADVANCED_FACE('',(#488),#107,.F.);
#541=ADVANCED_FACE('',(#489),#108,.F.);
#542=ADVANCED_FACE('',(#490),#109,.F.);
#543=ADVANCED_FACE('',(#491),#110,.T.);
#544=ADVANCED_FACE('',(#492),#111,.T.);
#545=ADVANCED_FACE('',(#493),#112,.F.);
#546=ADVANCED_FACE('',(#494),#113,.F.);
#547=ADVANCED_FACE('',(#495,#496),#13,.T.);
#548=ADVANCED_FACE('',(#497,#498),#114,.T.);
#549=ADVANCED_FACE('',(#499),#115,.F.);
#550=ADVANCED_FACE('',(#500,#501),#14,.F.);
#551=ADVANCED_FACE('',(#502,#503),#116,.T.);
#552=ADVANCED_FACE('',(#504,#505),#15,.T.);
#553=ADVANCED_FACE('',(#506,#507),#16,.F.);
#554=ADVANCED_FACE('',(#508,#509),#117,.T.);
#555=ADVANCED_FACE('',(#510,#511),#17,.T.);
#556=ADVANCED_FACE('',(#512,#513),#18,.F.);
#557=ADVANCED_FACE('',(#514,#515),#118,.T.);
#558=ADVANCED_FACE('',(#516,#517),#523,.T.);
#559=ADVANCED_FACE('',(#518,#519),#524,.F.);
#560=CLOSED_SHELL('',(#525,#526,#527,#528));
#561=CLOSED_SHELL('',(#529,#530,#531,#532,#533,#534,#535,#536,#537,#538,
#539,#540,#541,#542,#543,#544,#545,#546,#547,#548,#549,#550,#551,#552,#553,
#554,#555,#556,#557,#558,#559));
#562=STYLED_ITEM('',(#564),#578);
#563=STYLED_ITEM('',(#565),#579);
#564=PRESENTATION_STYLE_ASSIGNMENT((#566));
#565=PRESENTATION_STYLE_ASSIGNMENT((#567));
#566=SURFACE_STYLE_USAGE(.BOTH.,#568);
#567=SURFACE_STYLE_USAGE(.BOTH.,#569);
#568=SURFACE_SIDE_STYLE('',(#570));
#569=SURFACE_SIDE_STYLE('',(#571));
#570=SURFACE_STYLE_FILL_AREA(#572);
#571=SURFACE_STYLE_FILL_AREA(#573);
#572=FILL_AREA_STYLE('',(#574));
#573=FILL_AREA_STYLE('',(#575));
#574=FILL_AREA_STYLE_COLOUR('',#576);
#575=FILL_AREA_STYLE_COLOUR('',#577);
#576=COLOUR_RGB('',0.647058823529412,0.647058823529412,0.647058823529412);
#577=COLOUR_RGB('',0.615686274509804,0.811764705882353,0.929411764705882);
#578=MANIFOLD_SOLID_BREP('Arruela',#560);
#579=MANIFOLD_SOLID_BREP('Corpo',#561);
#580=SHAPE_DEFINITION_REPRESENTATION(#1002,#582);
#581=SHAPE_DEFINITION_REPRESENTATION(#1003,#583);
#582=SHAPE_REPRESENTATION('Arruela',(#584),#992);
#583=SHAPE_REPRESENTATION('Corpo',(#593),#993);
#584=AXIS2_PLACEMENT_3D('',#830,#654,#655);
#585=AXIS2_PLACEMENT_3D('',#831,#656,#657);
#586=AXIS2_PLACEMENT_3D('',#832,#658,#659);
#587=AXIS2_PLACEMENT_3D('',#834,#660,#661);
#588=AXIS2_PLACEMENT_3D('',#836,#662,#663);
#589=AXIS2_PLACEMENT_3D('',#837,#664,#665);
#590=AXIS2_PLACEMENT_3D('',#839,#666,#667);
#591=AXIS2_PLACEMENT_3D('',#841,#668,#669);
#592=AXIS2_PLACEMENT_3D('',#842,#670,#671);
#593=AXIS2_PLACEMENT_3D('',#843,#672,#673);
#594=AXIS2_PLACEMENT_3D('',#844,#674,#675);
#595=AXIS2_PLACEMENT_3D('',#853,#680,#681);
#596=AXIS2_PLACEMENT_3D('',#859,#685,#686);
#597=AXIS2_PLACEMENT_3D('',#865,#690,#691);
#598=AXIS2_PLACEMENT_3D('',#871,#695,#696);
#599=AXIS2_PLACEMENT_3D('',#877,#700,#701);
#600=AXIS2_PLACEMENT_3D('',#880,#704,#705);
#601=AXIS2_PLACEMENT_3D('',#881,#706,#707);
#602=AXIS2_PLACEMENT_3D('',#883,#708,#709);
#603=AXIS2_PLACEMENT_3D('',#884,#710,#711);
#604=AXIS2_PLACEMENT_3D('',#886,#712,#713);
#605=AXIS2_PLACEMENT_3D('',#887,#714,#715);
#606=AXIS2_PLACEMENT_3D('',#889,#716,#717);
#607=AXIS2_PLACEMENT_3D('',#890,#718,#719);
#608=AXIS2_PLACEMENT_3D('',#892,#720,#721);
#609=AXIS2_PLACEMENT_3D('',#900,#725,#726);
#610=AXIS2_PLACEMENT_3D('',#901,#727,#728);
#611=AXIS2_PLACEMENT_3D('',#907,#731,#732);
#612=AXIS2_PLACEMENT_3D('',#910,#734,#735);
#613=AXIS2_PLACEMENT_3D('',#911,#736,#737);
#614=AXIS2_PLACEMENT_3D('',#912,#738,#739);
#615=AXIS2_PLACEMENT_3D('',#913,#740,#741);
#616=AXIS2_PLACEMENT_3D('',#914,#742,#743);
#617=AXIS2_PLACEMENT_3D('',#919,#745,#746);
#618=AXIS2_PLACEMENT_3D('',#922,#748,#749);
#619=AXIS2_PLACEMENT_3D('',#927,#752,#753);
#620=AXIS2_PLACEMENT_3D('',#928,#754,#755);
#621=AXIS2_PLACEMENT_3D('',#936,#759,#760);
#622=AXIS2_PLACEMENT_3D('',#937,#761,#762);
#623=AXIS2_PLACEMENT_3D('',#943,#765,#766);
#624=AXIS2_PLACEMENT_3D('',#946,#768,#769);
#625=AXIS2_PLACEMENT_3D('',#949,#771,#772);
#626=AXIS2_PLACEMENT_3D('',#952,#774,#775);
#627=AXIS2_PLACEMENT_3D('',#953,#776,#777);
#628=AXIS2_PLACEMENT_3D('',#955,#778,#779);
#629=AXIS2_PLACEMENT_3D('',#956,#780,#781);
#630=AXIS2_PLACEMENT_3D('',#957,#782,#783);
#631=AXIS2_PLACEMENT_3D('',#959,#784,#785);
#632=AXIS2_PLACEMENT_3D('',#960,#786,#787);
#633=AXIS2_PLACEMENT_3D('',#961,#788,#789);
#634=AXIS2_PLACEMENT_3D('',#962,#790,#791);
#635=AXIS2_PLACEMENT_3D('',#963,#792,#793);
#636=AXIS2_PLACEMENT_3D('',#964,#794,#795);
#637=AXIS2_PLACEMENT_3D('',#965,#796,#797);
#638=AXIS2_PLACEMENT_3D('',#966,#798,#799);
#639=AXIS2_PLACEMENT_3D('',#967,#800,#801);
#640=AXIS2_PLACEMENT_3D('',#969,#802,#803);
#641=AXIS2_PLACEMENT_3D('',#971,#804,#805);
#642=AXIS2_PLACEMENT_3D('',#972,#806,#807);
#643=AXIS2_PLACEMENT_3D('',#973,#808,#809);
#644=AXIS2_PLACEMENT_3D('',#975,#810,#811);
#645=AXIS2_PLACEMENT_3D('',#977,#812,#813);
#646=AXIS2_PLACEMENT_3D('',#979,#814,#815);
#647=AXIS2_PLACEMENT_3D('',#980,#816,#817);
#648=AXIS2_PLACEMENT_3D('',#981,#818,#819);
#649=AXIS2_PLACEMENT_3D('',#983,#820,#821);
#650=AXIS2_PLACEMENT_3D('',#985,#822,#823);
#651=AXIS2_PLACEMENT_3D('',#987,#824,#825);
#652=AXIS2_PLACEMENT_3D('',#988,#826,#827);
#653=AXIS2_PLACEMENT_3D('',#989,#828,#829);
#654=DIRECTION('',(0.,0.,1.));
#655=DIRECTION('',(1.,0.,0.));
#656=DIRECTION('',(0.,0.,1.));
#657=DIRECTION('',(1.,0.,0.));
#658=DIRECTION('',(0.,0.,-1.));
#659=DIRECTION('',(-1.,0.,0.));
#660=DIRECTION('',(0.,0.,-1.));
#661=DIRECTION('',(-1.,0.,0.));
#662=DIRECTION('',(0.,0.,1.));
#663=DIRECTION('',(1.,0.,0.));
#664=DIRECTION('',(0.,0.,1.));
#665=DIRECTION('',(1.,0.,0.));
#666=DIRECTION('',(0.,0.,1.));
#667=DIRECTION('',(1.,0.,0.));
#668=DIRECTION('',(0.,0.,-1.));
#669=DIRECTION('',(1.,0.,0.));
#670=DIRECTION('',(0.,0.,-1.));
#671=DIRECTION('',(1.,0.,0.));
#672=DIRECTION('',(0.,0.,1.));
#673=DIRECTION('',(1.,0.,0.));
#674=DIRECTION('',(0.5,-0.866025403784439,0.));
#675=DIRECTION('',(0.866025403784439,0.5,0.));
#676=DIRECTION('',(-0.866025403784439,-0.5,0.));
#677=DIRECTION('',(0.,0.,-1.));
#678=DIRECTION('',(-0.866025403784439,-0.5,0.));
#679=DIRECTION('',(0.,0.,-1.));
#680=DIRECTION('',(1.,0.,0.));
#681=DIRECTION('',(0.,0.,-1.));
#682=DIRECTION('',(0.,-1.,0.));
#683=DIRECTION('',(0.,-1.,0.));
#684=DIRECTION('',(0.,0.,-1.));
#685=DIRECTION('',(0.5,0.866025403784439,0.));
#686=DIRECTION('',(-0.866025403784439,0.5,0.));
#687=DIRECTION('',(0.866025403784439,-0.5,0.));
#688=DIRECTION('',(0.866025403784439,-0.5,0.));
#689=DIRECTION('',(0.,0.,-1.));
#690=DIRECTION('',(-0.5,0.866025403784439,0.));
#691=DIRECTION('',(-0.866025403784439,-0.5,0.));
#692=DIRECTION('',(0.866025403784439,0.5,0.));
#693=DIRECTION('',(0.866025403784439,0.5,0.));
#694=DIRECTION('',(0.,0.,-1.));
#695=DIRECTION('',(-1.,2.40370335797945E-16,0.));
#696=DIRECTION('',(-2.40370335797945E-16,-1.,0.));
#697=DIRECTION('',(2.40370335797945E-16,1.,0.));
#698=DIRECTION('',(2.40370335797945E-16,1.,0.));
#699=DIRECTION('',(0.,0.,-1.));
#700=DIRECTION('',(-0.5,-0.866025403784438,0.));
#701=DIRECTION('',(0.866025403784438,-0.5,0.));
#702=DIRECTION('',(-0.866025403784438,0.5,0.));
#703=DIRECTION('',(-0.866025403784438,0.5,0.));
#704=DIRECTION('',(0.,0.,1.));
#705=DIRECTION('',(1.,0.,0.));
#706=DIRECTION('',(0.,0.,1.));
#707=DIRECTION('',(1.,0.,0.));
#708=DIRECTION('',(0.,0.,1.));
#709=DIRECTION('',(1.,0.,0.));
#710=DIRECTION('',(0.,0.,1.));
#711=DIRECTION('',(1.,0.,0.));
#712=DIRECTION('',(0.,0.,1.));
#713=DIRECTION('',(1.,0.,0.));
#714=DIRECTION('',(0.,0.,1.));
#715=DIRECTION('',(1.,0.,0.));
#716=DIRECTION('',(0.,0.,1.));
#717=DIRECTION('',(1.,0.,0.));
#718=DIRECTION('',(0.,0.,1.));
#719=DIRECTION('',(1.,0.,0.));
#720=DIRECTION('',(1.,-1.61081465626418E-16,0.));
#721=DIRECTION('',(1.61081465626418E-16,1.,0.));
#722=DIRECTION('',(-1.61081465626418E-16,-1.,0.));
#723=DIRECTION('',(0.,0.,-1.));
#724=DIRECTION('',(-1.61081465626418E-16,-1.,0.));
#725=DIRECTION('',(1.,0.,0.));
#726=DIRECTION('',(0.,0.,-1.));
#727=DIRECTION('',(1.,-1.61081465626418E-16,0.));
#728=DIRECTION('',(1.61081465626418E-16,1.,0.));
#729=DIRECTION('',(0.,0.,-1.));
#730=DIRECTION('',(-1.61081465626418E-16,-1.,0.));
#731=DIRECTION('',(1.,-1.61081465626418E-16,0.));
#732=DIRECTION('',(1.61081465626418E-16,1.,0.));
#733=DIRECTION('',(-1.61081465626418E-16,-1.,0.));
#734=DIRECTION('',(0.,0.,1.));
#735=DIRECTION('',(1.,0.,0.));
#736=DIRECTION('',(0.,0.,1.));
#737=DIRECTION('',(1.,0.,0.));
#738=DIRECTION('',(0.,0.,1.));
#739=DIRECTION('',(1.,0.,0.));
#740=DIRECTION('',(0.,0.,1.));
#741=DIRECTION('',(1.,0.,0.));
#742=DIRECTION('',(0.,0.,1.));
#743=DIRECTION('',(1.,0.,0.));
#744=DIRECTION('',(-0.866025403784438,0.5,0.));
#745=DIRECTION('',(0.,0.,1.));
#746=DIRECTION('',(-0.5,-0.866025403784438,0.));
#747=DIRECTION('',(-0.866025403784438,0.5,0.));
#748=DIRECTION('',(-0.5,-0.866025403784438,0.));
#749=DIRECTION('',(0.866025403784438,-0.5,0.));
#750=DIRECTION('',(0.,0.,-1.));
#751=DIRECTION('',(-0.866025403784438,0.5,0.));
#752=DIRECTION('',(-0.5,-0.866025403784438,0.));
#753=DIRECTION('',(0.,0.,-1.));
#754=DIRECTION('',(-0.5,0.866025403784439,0.));
#755=DIRECTION('',(-0.866025403784439,-0.5,0.));
#756=DIRECTION('',(0.866025403784439,0.5,0.));
#757=DIRECTION('',(0.,0.,-1.));
#758=DIRECTION('',(0.866025403784439,0.5,0.));
#759=DIRECTION('',(-0.5,0.866025403784439,0.));
#760=DIRECTION('',(0.,0.,-1.));
#761=DIRECTION('',(-0.5,0.866025403784439,0.));
#762=DIRECTION('',(-0.866025403784439,-0.5,0.));
#763=DIRECTION('',(0.,0.,-1.));
#764=DIRECTION('',(0.866025403784439,0.5,0.));
#765=DIRECTION('',(-0.5,0.866025403784439,0.));
#766=DIRECTION('',(-0.866025403784439,-0.5,0.));
#767=DIRECTION('',(0.866025403784439,0.5,0.));
#768=DIRECTION('',(-0.5,-0.866025403784438,0.));
#769=DIRECTION('',(0.866025403784438,-0.5,0.));
#770=DIRECTION('',(0.,0.,-1.));
#771=DIRECTION('',(-0.5,-0.866025403784438,0.));
#772=DIRECTION('',(0.866025403784438,-0.5,0.));
#773=DIRECTION('',(-0.866025403784438,0.5,0.));
#774=DIRECTION('',(1.80700362080917E-16,1.,0.));
#775=DIRECTION('',(-3.06161699786839E-16,5.53235300067908E-32,-1.));
#776=DIRECTION('',(-1.,1.80700362080917E-16,3.06161699786839E-16));
#777=DIRECTION('',(3.06161699786839E-16,1.80700362080917E-16,1.));
#778=DIRECTION('',(0.,0.,1.));
#779=DIRECTION('',(1.,0.,0.));
#780=DIRECTION('',(0.,0.,1.));
#781=DIRECTION('',(1.,0.,0.));
#782=DIRECTION('',(0.,0.,1.));
#783=DIRECTION('',(1.,0.,0.));
#784=DIRECTION('',(0.,0.,1.));
#785=DIRECTION('',(1.,0.,0.));
#786=DIRECTION('',(0.,0.,1.));
#787=DIRECTION('',(1.,0.,0.));
#788=DIRECTION('',(0.,0.,1.));
#789=DIRECTION('',(-0.5,0.866025403784439,0.));
#790=DIRECTION('',(0.,0.,1.));
#791=DIRECTION('',(1.,0.,0.));
#792=DIRECTION('',(0.,0.,1.));
#793=DIRECTION('',(-0.5,-0.866025403784438,0.));
#794=DIRECTION('',(0.,0.,1.));
#795=DIRECTION('',(1.,0.,0.));
#796=DIRECTION('',(0.,0.,1.));
#797=DIRECTION('',(1.,0.,0.));
#798=DIRECTION('',(0.,0.,1.));
#799=DIRECTION('',(-0.5,0.866025403784439,0.));
#800=DIRECTION('',(1.80700362080917E-16,1.,0.));
#801=DIRECTION('',(3.06161699786839E-16,-5.53235300067908E-32,1.));
#802=DIRECTION('',(1.,-1.80700362080917E-16,-3.06161699786839E-16));
#803=DIRECTION('',(3.06161699786839E-16,1.80700362080917E-16,1.));
#804=DIRECTION('',(-1.,1.80700362080917E-16,3.06161699786839E-16));
#805=DIRECTION('',(3.06161699786839E-16,1.80700362080917E-16,1.));
#806=DIRECTION('',(-0.866025403784439,-0.5,0.));
#807=DIRECTION('',(1.53080849893419E-16,-2.65143809681227E-16,-1.));
#808=DIRECTION('',(0.5,-0.866025403784439,3.06161699786839E-16));
#809=DIRECTION('',(-3.0957195392854E-16,1.74793628640768E-16,1.));
#810=DIRECTION('',(-0.866025403784439,-0.5,0.));
#811=DIRECTION('',(-1.53080849893419E-16,2.65143809681227E-16,1.));
#812=DIRECTION('',(-0.5,0.866025403784439,-3.06161699786839E-16));
#813=DIRECTION('',(-3.0957195392854E-16,1.74793628640768E-16,1.));
#814=DIRECTION('',(0.5,-0.866025403784439,3.06161699786839E-16));
#815=DIRECTION('',(-3.0957195392854E-16,1.74793628640768E-16,1.));
#816=DIRECTION('',(0.866025403784438,-0.5,0.));
#817=DIRECTION('',(1.53080849893419E-16,2.65143809681226E-16,-1.));
#818=DIRECTION('',(0.5,0.866025403784438,3.06161699786839E-16));
#819=DIRECTION('',(3.41025414170138E-18,-3.55493990721686E-16,1.));
#820=DIRECTION('',(0.866025403784438,-0.5,0.));
#821=DIRECTION('',(-1.53080849893419E-16,-2.65143809681226E-16,1.));
#822=DIRECTION('',(-0.5,-0.866025403784438,-3.06161699786839E-16));
#823=DIRECTION('',(3.41025414170138E-18,-3.55493990721686E-16,1.));
#824=DIRECTION('',(0.5,0.866025403784438,3.06161699786839E-16));
#825=DIRECTION('',(3.41025414170138E-18,-3.55493990721686E-16,1.));
#826=DIRECTION('',(0.,0.,-1.));
#827=DIRECTION('',(-1.,0.,0.));
#828=DIRECTION('',(0.,0.,1.));
#829=DIRECTION('',(1.,0.,0.));
#830=CARTESIAN_POINT('',(0.,0.,0.));
#831=CARTESIAN_POINT('',(0.,-5.64371029383447E-19,-0.002));
#832=CARTESIAN_POINT('',(0.,-5.64371029383447E-19,-0.002));
#833=CARTESIAN_POINT('',(-0.00921687836487032,-5.64371029383447E-19,-0.002));
#834=CARTESIAN_POINT('',(0.,-5.64371029383447E-19,0.));
#835=CARTESIAN_POINT('',(-0.00921687836487032,-5.64371029383447E-19,0.));
#836=CARTESIAN_POINT('',(0.,1.33180339407275E-19,-0.002));
#837=CARTESIAN_POINT('',(0.,1.33180339407275E-19,-0.002));
#838=CARTESIAN_POINT('',(0.002175,1.33180339407275E-19,-0.002));
#839=CARTESIAN_POINT('',(0.,1.33180339407275E-19,0.));
#840=CARTESIAN_POINT('',(0.002175,1.33180339407275E-19,0.));
#841=CARTESIAN_POINT('',(0.,0.,-0.002));
#842=CARTESIAN_POINT('',(0.,0.,0.));
#843=CARTESIAN_POINT('',(0.,0.,0.));
#844=CARTESIAN_POINT('',(-0.003125,0.00541265877365274,0.0153));
#845=CARTESIAN_POINT('',(-0.003125,0.00541265877365274,0.0133));
#846=CARTESIAN_POINT('',(1.3010426069826E-18,0.00721687836487032,0.0133));
#847=CARTESIAN_POINT('',(-0.00625,0.00360843918243516,0.0133));
#848=CARTESIAN_POINT('',(1.3010426069826E-18,0.00721687836487032,0.0153));
#849=CARTESIAN_POINT('',(1.3010426069826E-18,0.00721687836487032,0.));
#850=CARTESIAN_POINT('',(-0.003125,0.00541265877365274,0.));
#851=CARTESIAN_POINT('',(-0.00625,0.00360843918243516,0.));
#852=CARTESIAN_POINT('',(-0.00625,0.00360843918243516,0.0153));
#853=CARTESIAN_POINT('',(-0.00625,0.,0.0153));
#854=CARTESIAN_POINT('',(-0.00625,0.,0.0133));
#855=CARTESIAN_POINT('',(-0.00625,-0.00360843918243516,0.0133));
#856=CARTESIAN_POINT('',(-0.00625,0.,0.));
#857=CARTESIAN_POINT('',(-0.00625,-0.00360843918243516,0.));
#858=CARTESIAN_POINT('',(-0.00625,-0.00360843918243516,0.0153));
#859=CARTESIAN_POINT('',(-0.003125,-0.00541265877365274,0.0153));
#860=CARTESIAN_POINT('',(-0.003125,-0.00541265877365274,0.0133));
#861=CARTESIAN_POINT('',(-2.60208521396521E-18,-0.00721687836487032,0.0133));
#862=CARTESIAN_POINT('',(-0.003125,-0.00541265877365274,0.));
#863=CARTESIAN_POINT('',(-2.60208521396521E-18,-0.00721687836487032,0.));
#864=CARTESIAN_POINT('',(-2.60208521396521E-18,-0.00721687836487032,0.0153));
#865=CARTESIAN_POINT('',(0.003125,-0.00541265877365274,0.0153));
#866=CARTESIAN_POINT('',(0.003125,-0.00541265877365274,0.0133));
#867=CARTESIAN_POINT('',(0.00625,-0.00360843918243516,0.0133));
#868=CARTESIAN_POINT('',(0.003125,-0.00541265877365274,0.));
#869=CARTESIAN_POINT('',(0.00625,-0.00360843918243516,0.));
#870=CARTESIAN_POINT('',(0.00625,-0.00360843918243516,0.0153));
#871=CARTESIAN_POINT('',(0.00625,-4.33680868994202E-19,0.0153));
#872=CARTESIAN_POINT('',(0.00625,-4.33680868994202E-19,0.0133));
#873=CARTESIAN_POINT('',(0.00625,0.00360843918243516,0.0133));
#874=CARTESIAN_POINT('',(0.00625,-4.33680868994202E-19,0.));
#875=CARTESIAN_POINT('',(0.00625,0.00360843918243516,0.));
#876=CARTESIAN_POINT('',(0.00625,0.00360843918243516,0.0153));
#877=CARTESIAN_POINT('',(0.003125,0.00541265877365274,0.0153));
#878=CARTESIAN_POINT('',(0.003125,0.00541265877365274,0.0133));
#879=CARTESIAN_POINT('',(0.003125,0.00541265877365274,0.));
#880=CARTESIAN_POINT('',(0.,0.,0.));
#881=CARTESIAN_POINT('',(0.,1.33180339407275E-19,0.));
#882=CARTESIAN_POINT('',(0.002175,1.33180339407275E-19,0.));
#883=CARTESIAN_POINT('',(0.,0.,0.0133));
#884=CARTESIAN_POINT('',(0.,5.64371029383447E-19,0.0133));
#885=CARTESIAN_POINT('',(0.00921687836487032,5.64371029383447E-19,0.0133));
#886=CARTESIAN_POINT('',(0.,5.64371029383447E-19,0.0133));
#887=CARTESIAN_POINT('',(0.,5.64371029383447E-19,0.0153));
#888=CARTESIAN_POINT('',(0.00921687836487032,5.64371029383447E-19,0.0153));
#889=CARTESIAN_POINT('',(0.,0.,0.0153));
#890=CARTESIAN_POINT('',(0.,7.92893233170673E-19,0.0153));
#891=CARTESIAN_POINT('',(0.00373205080756888,7.92893233170673E-19,0.0153));
#892=CARTESIAN_POINT('',(0.0015,-0.0175,0.0298));
#893=CARTESIAN_POINT('',(0.0015,-0.0175,0.0258));
#894=CARTESIAN_POINT('',(0.0015,-0.00341733861802946,0.0258));
#895=CARTESIAN_POINT('',(0.0015,-0.0351716610880852,0.0258));
#896=CARTESIAN_POINT('',(0.0015,-0.00341733861802946,0.029802));
#897=CARTESIAN_POINT('',(0.0015,-0.00341733861802946,0.0298));
#898=CARTESIAN_POINT('',(0.0015,-0.0175,0.0298));
#899=CARTESIAN_POINT('',(0.0015,-0.0351716610880852,0.0298));
#900=CARTESIAN_POINT('',(0.0015,-0.0467366945943055,0.0278));
#901=CARTESIAN_POINT('',(-0.0015,-0.0175,0.0298));
#902=CARTESIAN_POINT('',(-0.0015,-0.00341733861802947,0.029802));
#903=CARTESIAN_POINT('',(-0.0015,-0.00341733861802947,0.0258));
#904=CARTESIAN_POINT('',(-0.0015,-0.00341733861802947,0.0298));
#905=CARTESIAN_POINT('',(-0.0015,-0.0175,0.0258));
#906=CARTESIAN_POINT('',(-0.0015,-0.034176837907225,0.0258));
#907=CARTESIAN_POINT('',(-0.0015,-0.0467366945943055,0.0278));
#908=CARTESIAN_POINT('',(-0.0015,-0.034176837907225,0.0298));
#909=CARTESIAN_POINT('',(-0.0015,-0.0175,0.0298));
#910=CARTESIAN_POINT('',(0.,-0.0128915608175648,0.0258));
#911=CARTESIAN_POINT('',(0.,7.92893233170673E-19,0.0258));
#912=CARTESIAN_POINT('',(-0.004,-0.0467366945943055,0.0258));
#913=CARTESIAN_POINT('',(0.,-0.0128915608175648,0.0258));
#914=CARTESIAN_POINT('',(0.,7.92893233170673E-19,0.0258));
#915=CARTESIAN_POINT('',(-0.00370950205654712,0.000409631203338064,0.0258));
#916=CARTESIAN_POINT('',(-0.00220950205654712,0.00300770741469139,0.0258));
#917=CARTESIAN_POINT('',(-0.0159054445662277,0.00745096189432334,0.0258));
#918=CARTESIAN_POINT('',(-0.0312095519955784,0.0162867924383659,0.0258));
#919=CARTESIAN_POINT('',(-0.0384751648075834,0.0268324489122906,0.0258));
#920=CARTESIAN_POINT('',(-0.0288480098486798,0.0183874570592892,0.0258));
#921=CARTESIAN_POINT('',(-0.0144054445662277,0.0100490381056767,0.0258));
#922=CARTESIAN_POINT('',(-0.0159054445662277,0.00745096189432334,0.0298));
#923=CARTESIAN_POINT('',(-0.00370950205654712,0.000409631203338063,0.029802));
#924=CARTESIAN_POINT('',(-0.00370950205654712,0.000409631203338064,0.0298));
#925=CARTESIAN_POINT('',(-0.0159054445662277,0.00745096189432334,0.0298));
#926=CARTESIAN_POINT('',(-0.0312095519955784,0.0162867924383659,0.0298));
#927=CARTESIAN_POINT('',(-0.0412251648075834,0.0220693091914761,0.0278));
#928=CARTESIAN_POINT('',(0.0144054445662277,0.0100490381056767,0.0298));
#929=CARTESIAN_POINT('',(0.0144054445662277,0.0100490381056767,0.0258));
#930=CARTESIAN_POINT('',(0.00220950205654711,0.0030077074146914,0.0258));
#931=CARTESIAN_POINT('',(0.0297095519955783,0.0188848686497192,0.0258));
#932=CARTESIAN_POINT('',(0.00220950205654711,0.0030077074146914,0.029802));
#933=CARTESIAN_POINT('',(0.00220950205654711,0.0030077074146914,0.0298));
#934=CARTESIAN_POINT('',(0.0144054445662277,0.0100490381056767,0.0298));
#935=CARTESIAN_POINT('',(0.0297095519955783,0.0188848686497192,0.0298));
#936=CARTESIAN_POINT('',(0.0397251648075834,0.0246673854028294,0.0278));
#937=CARTESIAN_POINT('',(0.0159054445662277,0.00745096189432334,0.0298));
#938=CARTESIAN_POINT('',(0.00370950205654712,0.000409631203338081,0.029802));
#939=CARTESIAN_POINT('',(0.00370950205654712,0.000409631203338081,0.0258));
#940=CARTESIAN_POINT('',(0.00370950205654712,0.000409631203338081,0.0298));
#941=CARTESIAN_POINT('',(0.0159054445662277,0.00745096189432334,0.0258));
#942=CARTESIAN_POINT('',(0.0303480098486798,0.0157893808479358,0.0258));
#943=CARTESIAN_POINT('',(0.0412251648075834,0.0220693091914761,0.0278));
#944=CARTESIAN_POINT('',(0.0303480098486798,0.0157893808479358,0.0298));
#945=CARTESIAN_POINT('',(0.0159054445662277,0.00745096189432334,0.0298));
#946=CARTESIAN_POINT('',(-0.0144054445662277,0.0100490381056767,0.0298));
#947=CARTESIAN_POINT('',(-0.00220950205654712,0.00300770741469139,0.029802));
#948=CARTESIAN_POINT('',(-0.00220950205654712,0.00300770741469139,0.0298));
#949=CARTESIAN_POINT('',(-0.0397251648075834,0.0246673854028294,0.0278));
#950=CARTESIAN_POINT('',(-0.0288480098486798,0.0183874570592892,0.0298));
#951=CARTESIAN_POINT('',(-0.0144054445662277,0.0100490381056767,0.0298));
#952=CARTESIAN_POINT('',(-0.004,-0.0467366945943055,0.0278));
#953=CARTESIAN_POINT('',(-0.004,-0.0467366945943055,0.0278));
#954=CARTESIAN_POINT('',(-0.004,-0.0467366945943055,0.0407614813968157));
#955=CARTESIAN_POINT('',(-0.004,-0.0467366945943055,0.0298));
#956=CARTESIAN_POINT('',(0.,-0.0128915608175648,0.0298));
#957=CARTESIAN_POINT('',(0.,1.33180339407275E-19,0.0298));
#958=CARTESIAN_POINT('',(0.002175,1.33180339407275E-19,0.0298));
#959=CARTESIAN_POINT('',(0.,7.92893233170673E-19,0.0298));
#960=CARTESIAN_POINT('',(0.,7.92893233170673E-19,0.0298));
#961=CARTESIAN_POINT('',(0.0424751648075834,0.019904245682015,0.0298));
#962=CARTESIAN_POINT('',(0.,7.92893233170673E-19,0.0298));
#963=CARTESIAN_POINT('',(-0.0384751648075834,0.0268324489122906,0.0298));
#964=CARTESIAN_POINT('',(0.,-0.0128915608175648,0.0258));
#965=CARTESIAN_POINT('',(0.,7.92893233170673E-19,0.0258));
#966=CARTESIAN_POINT('',(0.0424751648075834,0.019904245682015,0.0258));
#967=CARTESIAN_POINT('',(-0.004,-0.0467366945943055,0.0278));
#968=CARTESIAN_POINT('',(-0.00150000000000003,-0.035,0.0278));
#969=CARTESIAN_POINT('',(-0.004,-0.0467366945943055,0.0278));
#970=CARTESIAN_POINT('',(-0.004,-0.0467366945943055,0.0398));
#971=CARTESIAN_POINT('',(-0.004,-0.0467366945943055,0.0342807406984078));
#972=CARTESIAN_POINT('',(0.0424751648075834,0.019904245682015,0.0278));
#973=CARTESIAN_POINT('',(0.0424751648075834,0.019904245682015,0.0278));
#974=CARTESIAN_POINT('',(0.0424751648075834,0.019904245682015,0.0407614813968157));
#975=CARTESIAN_POINT('',(0.0424751648075834,0.019904245682015,0.0278));
#976=CARTESIAN_POINT('',(0.0310608891324554,0.0162009618943233,0.0278));
#977=CARTESIAN_POINT('',(0.0424751648075834,0.019904245682015,0.0278));
#978=CARTESIAN_POINT('',(0.0424751648075834,0.019904245682015,0.0398));
#979=CARTESIAN_POINT('',(0.0424751648075834,0.019904245682015,0.0342807406984078));
#980=CARTESIAN_POINT('',(-0.0384751648075834,0.0268324489122906,0.0278));
#981=CARTESIAN_POINT('',(-0.0384751648075834,0.0268324489122906,0.0278));
#982=CARTESIAN_POINT('',(-0.0384751648075834,0.0268324489122905,0.0407614813968157));
#983=CARTESIAN_POINT('',(-0.0384751648075834,0.0268324489122906,0.0278));
#984=CARTESIAN_POINT('',(-0.0295608891324554,0.0187990381056767,0.0278));
#985=CARTESIAN_POINT('',(-0.0384751648075834,0.0268324489122906,0.0278));
#986=CARTESIAN_POINT('',(-0.0384751648075834,0.0268324489122905,0.0398));
#987=CARTESIAN_POINT('',(-0.0384751648075834,0.0268324489122906,0.0342807406984078));
#988=CARTESIAN_POINT('',(0.,7.92893233170673E-19,0.029802));
#989=CARTESIAN_POINT('',(0.,1.33180339407275E-19,-1.99999999999853E-6));
#990=MECHANICAL_DESIGN_GEOMETRIC_PRESENTATION_REPRESENTATION('',(#562),
#992);
#991=MECHANICAL_DESIGN_GEOMETRIC_PRESENTATION_REPRESENTATION('',(#563),
#993);
#992=(
GEOMETRIC_REPRESENTATION_CONTEXT(3)
GLOBAL_UNCERTAINTY_ASSIGNED_CONTEXT((#994))
GLOBAL_UNIT_ASSIGNED_CONTEXT((#1000,#998,#996))
REPRESENTATION_CONTEXT('Arruela','TOP_LEVEL_ASSEMBLY_PART')
);
#993=(
GEOMETRIC_REPRESENTATION_CONTEXT(3)
GLOBAL_UNCERTAINTY_ASSIGNED_CONTEXT((#995))
GLOBAL_UNIT_ASSIGNED_CONTEXT((#1001,#999,#997))
REPRESENTATION_CONTEXT('Corpo','TOP_LEVEL_ASSEMBLY_PART')
);
#994=UNCERTAINTY_MEASURE_WITH_UNIT(LENGTH_MEASURE(1.E-8),#1000,
'DISTANCE_ACCURACY_VALUE','Maximum Tolerance applied to model');
#995=UNCERTAINTY_MEASURE_WITH_UNIT(LENGTH_MEASURE(1.E-8),#1001,
'DISTANCE_ACCURACY_VALUE','Maximum Tolerance applied to model');
#996=(
NAMED_UNIT(*)
SI_UNIT($,.STERADIAN.)
SOLID_ANGLE_UNIT()
);
#997=(
NAMED_UNIT(*)
SI_UNIT($,.STERADIAN.)
SOLID_ANGLE_UNIT()
);
#998=(
NAMED_UNIT(*)
PLANE_ANGLE_UNIT()
SI_UNIT($,.RADIAN.)
);
#999=(
NAMED_UNIT(*)
PLANE_ANGLE_UNIT()
SI_UNIT($,.RADIAN.)
);
#1000=(
LENGTH_UNIT()
NAMED_UNIT(*)
SI_UNIT($,.METRE.)
);
#1001=(
LENGTH_UNIT()
NAMED_UNIT(*)
SI_UNIT($,.METRE.)
);
#1002=PRODUCT_DEFINITION_SHAPE('','',#1004);
#1003=PRODUCT_DEFINITION_SHAPE('','',#1005);
#1004=PRODUCT_DEFINITION('','',#1008,#1006);
#1005=PRODUCT_DEFINITION('','',#1009,#1007);
#1006=PRODUCT_DEFINITION_CONTEXT('',#1020,'design');
#1007=PRODUCT_DEFINITION_CONTEXT('',#1021,'design');
#1008=PRODUCT_DEFINITION_FORMATION_WITH_SPECIFIED_SOURCE('','',#1012,
 .NOT_KNOWN.);
#1009=PRODUCT_DEFINITION_FORMATION_WITH_SPECIFIED_SOURCE('','',#1013,
 .NOT_KNOWN.);
#1010=PRODUCT_RELATED_PRODUCT_CATEGORY('','',(#1012));
#1011=PRODUCT_RELATED_PRODUCT_CATEGORY('','',(#1013));
#1012=PRODUCT('Arruela','Arruela','Arruela',(#1016));
#1013=PRODUCT('Corpo','Corpo','Corpo',(#1017));
#1014=PRODUCT_CATEGORY('','');
#1015=PRODUCT_CATEGORY('','');
#1016=PRODUCT_CONTEXT('',#1020,'mechanical');
#1017=PRODUCT_CONTEXT('',#1021,'mechanical');
#1018=APPLICATION_PROTOCOL_DEFINITION('international standard',
'ap242_managed_model_based_3d_engineering',2020,#1020);
#1019=APPLICATION_PROTOCOL_DEFINITION('international standard',
'ap242_managed_model_based_3d_engineering',2020,#1021);
#1020=APPLICATION_CONTEXT('managed model based 3d engineering');
#1021=APPLICATION_CONTEXT('managed model based 3d engineering');
ENDSEC;
END-ISO-10303-21;
