ISO-10303-21;
HEADER;
/* Generated by software containing ST-Developer
 * from STEP Tools, Inc. (www.steptools.com) 
 */
/* OPTION: using custom renumber hook */

FILE_DESCRIPTION(
/* description */ ('STEP AP242 Edition 2',
'CAx-IF Rec.Pracs.---Representation and Presentation of Product Manufa
cturing Information (PMI)---4.0---2014-10-13',
'CAx-IF Rec.Pracs.---3D Tessellated Geometry---0.4---2014-09-14','2;1',
'CAx-IF Rec.Pracs.---User Defined Attributes---1.5---2016-08-15'),
/* implementation_level */ '2;1');

FILE_NAME(
/* name */ 'Wing',
/* time_stamp */ '2026-07-14T21:34:51Z',
/* author */ (''),
/* organization */ (''),
/* preprocessor_version */ 'ST-DEVELOPER v20',
/* originating_system */ 'ONSHAPE BY PTC INC, 1.217',
/* authorisation */ '  ');

FILE_SCHEMA (('AP242_MANAGED_MODEL_BASED_3D_ENGINEERING_MIM_LF { 1 0 10303 442 3 1 4 }'));
ENDSEC;

DATA;
#10=SHAPE_REPRESENTATION_RELATIONSHIP('','',#128,#11);
#11=ADVANCED_BREP_SHAPE_REPRESENTATION('',(#126),#228);
#12=ELLIPSE('',#134,0.144259626652477,0.0550112244897959);
#13=ELLIPSE('',#135,0.144259626652477,0.0550112244897959);
#14=B_SPLINE_SURFACE_WITH_KNOTS('',3,1,((#200,#201),(#202,#203),(#204,#205),
(#206,#207),(#208,#209),(#210,#211),(#212,#213)),
 .SURF_OF_LINEAR_EXTRUSION.,.F.,.F.,.F.,(4,1,1,1,4),(2,2),(3.70564974434706,
3.95733455335647,4.20901936236588,4.46070417137528,4.71238898038469),(0.,
1.),.UNSPECIFIED.);
#15=PLANE('',#133);
#16=PLANE('',#136);
#17=PLANE('',#139);
#18=LINE('',#186,#25);
#19=LINE('',#190,#26);
#20=LINE('',#192,#27);
#21=LINE('',#195,#28);
#22=LINE('',#197,#29);
#23=LINE('',#199,#30);
#24=LINE('',#216,#31);
#25=VECTOR('',#150,1.);
#26=VECTOR('',#153,1.);
#27=VECTOR('',#156,1.);
#28=VECTOR('',#157,1.);
#29=VECTOR('',#158,1.);
#30=VECTOR('',#159,1.);
#31=VECTOR('',#162,1.);
#32=ORIENTED_EDGE('',*,*,#62,.F.);
#33=ORIENTED_EDGE('',*,*,#63,.T.);
#34=ORIENTED_EDGE('',*,*,#64,.T.);
#35=ORIENTED_EDGE('',*,*,#65,.T.);
#36=ORIENTED_EDGE('',*,*,#66,.T.);
#37=ORIENTED_EDGE('',*,*,#67,.T.);
#38=ORIENTED_EDGE('',*,*,#68,.F.);
#39=ORIENTED_EDGE('',*,*,#69,.T.);
#40=ORIENTED_EDGE('',*,*,#70,.F.);
#41=ORIENTED_EDGE('',*,*,#71,.T.);
#42=ORIENTED_EDGE('',*,*,#72,.T.);
#43=ORIENTED_EDGE('',*,*,#65,.F.);
#44=ORIENTED_EDGE('',*,*,#68,.T.);
#45=ORIENTED_EDGE('',*,*,#73,.T.);
#46=ORIENTED_EDGE('',*,*,#70,.T.);
#47=ORIENTED_EDGE('',*,*,#64,.F.);
#48=ORIENTED_EDGE('',*,*,#74,.T.);
#49=ORIENTED_EDGE('',*,*,#72,.F.);
#50=ORIENTED_EDGE('',*,*,#75,.T.);
#51=ORIENTED_EDGE('',*,*,#66,.F.);
#52=ORIENTED_EDGE('',*,*,#76,.T.);
#53=ORIENTED_EDGE('',*,*,#62,.T.);
#54=ORIENTED_EDGE('',*,*,#73,.F.);
#55=ORIENTED_EDGE('',*,*,#67,.F.);
#56=ORIENTED_EDGE('',*,*,#75,.F.);
#57=ORIENTED_EDGE('',*,*,#71,.F.);
#58=ORIENTED_EDGE('',*,*,#74,.F.);
#59=ORIENTED_EDGE('',*,*,#63,.F.);
#60=ORIENTED_EDGE('',*,*,#76,.F.);
#61=ORIENTED_EDGE('',*,*,#69,.F.);
#62=EDGE_CURVE('',#77,#78,#87,.T.);
#63=EDGE_CURVE('',#77,#79,#18,.F.);
#64=EDGE_CURVE('',#79,#80,#88,.T.);
#65=EDGE_CURVE('',#80,#78,#19,.T.);
#66=EDGE_CURVE('',#81,#82,#20,.T.);
#67=EDGE_CURVE('',#82,#83,#21,.F.);
#68=EDGE_CURVE('',#84,#83,#22,.T.);
#69=EDGE_CURVE('',#84,#81,#23,.F.);
#70=EDGE_CURVE('',#85,#80,#12,.T.);
#71=EDGE_CURVE('',#85,#86,#24,.T.);
#72=EDGE_CURVE('',#86,#78,#13,.T.);
#73=EDGE_CURVE('',#83,#85,#89,.T.);
#74=EDGE_CURVE('',#79,#84,#90,.T.);
#75=EDGE_CURVE('',#86,#82,#91,.F.);
#76=EDGE_CURVE('',#81,#77,#92,.F.);
#77=VERTEX_POINT('',#184);
#78=VERTEX_POINT('',#185);
#79=VERTEX_POINT('',#187);
#80=VERTEX_POINT('',#189);
#81=VERTEX_POINT('',#193);
#82=VERTEX_POINT('',#194);
#83=VERTEX_POINT('',#196);
#84=VERTEX_POINT('',#198);
#85=VERTEX_POINT('',#215);
#86=VERTEX_POINT('',#217);
#87=CIRCLE('',#131,0.0250051020408164);
#88=CIRCLE('',#132,0.0250051020408164);
#89=CIRCLE('',#137,0.001);
#90=CIRCLE('',#138,0.001);
#91=CIRCLE('',#140,0.001);
#92=CIRCLE('',#141,0.001);
#93=EDGE_LOOP('',(#32,#33,#34,#35));
#94=EDGE_LOOP('',(#36,#37,#38,#39));
#95=EDGE_LOOP('',(#40,#41,#42,#43));
#96=EDGE_LOOP('',(#44,#45,#46,#47,#48));
#97=EDGE_LOOP('',(#49,#50,#51,#52,#53));
#98=EDGE_LOOP('',(#54,#55,#56,#57));
#99=EDGE_LOOP('',(#58,#59,#60,#61));
#100=FACE_BOUND('',#93,.T.);
#101=FACE_BOUND('',#94,.T.);
#102=FACE_BOUND('',#95,.T.);
#103=FACE_BOUND('',#96,.T.);
#104=FACE_BOUND('',#97,.T.);
#105=FACE_BOUND('',#98,.T.);
#106=FACE_BOUND('',#99,.T.);
#107=CYLINDRICAL_SURFACE('',#130,0.0250051020408164);
#108=CYLINDRICAL_SURFACE('',#142,0.001);
#109=CYLINDRICAL_SURFACE('',#143,0.001);
#110=ADVANCED_FACE('',(#100),#107,.T.);
#111=ADVANCED_FACE('',(#101),#15,.F.);
#112=ADVANCED_FACE('',(#102),#14,.F.);
#113=ADVANCED_FACE('',(#103),#16,.T.);
#114=ADVANCED_FACE('',(#104),#17,.F.);
#115=ADVANCED_FACE('',(#105),#108,.T.);
#116=ADVANCED_FACE('',(#106),#109,.T.);
#117=CLOSED_SHELL('',(#110,#111,#112,#113,#114,#115,#116));
#118=STYLED_ITEM('',(#119),#126);
#119=PRESENTATION_STYLE_ASSIGNMENT((#120));
#120=SURFACE_STYLE_USAGE(.BOTH.,#121);
#121=SURFACE_SIDE_STYLE('',(#122));
#122=SURFACE_STYLE_FILL_AREA(#123);
#123=FILL_AREA_STYLE('',(#124));
#124=FILL_AREA_STYLE_COLOUR('',#125);
#125=COLOUR_RGB('',0.615686274509804,0.811764705882353,0.929411764705882);
#126=MANIFOLD_SOLID_BREP('Part 1',#117);
#127=SHAPE_DEFINITION_REPRESENTATION(#233,#128);
#128=SHAPE_REPRESENTATION('Part 1',(#129),#228);
#129=AXIS2_PLACEMENT_3D('',#181,#144,#145);
#130=AXIS2_PLACEMENT_3D('',#182,#146,#147);
#131=AXIS2_PLACEMENT_3D('',#183,#148,#149);
#132=AXIS2_PLACEMENT_3D('',#188,#151,#152);
#133=AXIS2_PLACEMENT_3D('',#191,#154,#155);
#134=AXIS2_PLACEMENT_3D('',#214,#160,#161);
#135=AXIS2_PLACEMENT_3D('',#218,#163,#164);
#136=AXIS2_PLACEMENT_3D('',#219,#165,#166);
#137=AXIS2_PLACEMENT_3D('',#220,#167,#168);
#138=AXIS2_PLACEMENT_3D('',#221,#169,#170);
#139=AXIS2_PLACEMENT_3D('',#222,#171,#172);
#140=AXIS2_PLACEMENT_3D('',#223,#173,#174);
#141=AXIS2_PLACEMENT_3D('',#224,#175,#176);
#142=AXIS2_PLACEMENT_3D('',#225,#177,#178);
#143=AXIS2_PLACEMENT_3D('',#226,#179,#180);
#144=DIRECTION('',(0.,0.,1.));
#145=DIRECTION('',(1.,0.,0.));
#146=DIRECTION('',(0.,1.,0.));
#147=DIRECTION('',(0.,0.,1.));
#148=DIRECTION('',(0.,1.,0.));
#149=DIRECTION('',(0.,0.,-1.));
#150=DIRECTION('',(0.,1.,0.));
#151=DIRECTION('',(0.,1.,0.));
#152=DIRECTION('',(0.,0.,-1.));
#153=DIRECTION('',(0.,1.,0.));
#154=DIRECTION('',(0.,0.,1.));
#155=DIRECTION('',(1.,0.,0.));
#156=DIRECTION('',(1.,0.,0.));
#157=DIRECTION('',(0.,1.,0.));
#158=DIRECTION('',(1.,0.,0.));
#159=DIRECTION('',(0.,-1.,0.));
#160=DIRECTION('',(0.,-1.,0.));
#161=DIRECTION('',(-0.999795960008162,0.,-0.0201999591920016));
#162=DIRECTION('',(0.,1.,0.));
#163=DIRECTION('',(0.,-1.,0.));
#164=DIRECTION('',(-0.999795960008162,0.,-0.0201999591920016));
#165=DIRECTION('',(0.,-1.,0.));
#166=DIRECTION('',(1.,0.,0.));
#167=DIRECTION('',(0.,-1.,0.));
#168=DIRECTION('',(0.,0.,-1.));
#169=DIRECTION('',(0.,-1.,0.));
#170=DIRECTION('',(0.,0.,-1.));
#171=DIRECTION('',(0.,-1.,0.));
#172=DIRECTION('',(1.,0.,0.));
#173=DIRECTION('',(0.,-1.,0.));
#174=DIRECTION('',(0.,0.,-1.));
#175=DIRECTION('',(0.,-1.,0.));
#176=DIRECTION('',(0.,0.,-1.));
#177=DIRECTION('',(0.,1.,0.));
#178=DIRECTION('',(0.,0.,1.));
#179=DIRECTION('',(0.,1.,0.));
#180=DIRECTION('',(0.,0.,1.));
#181=CARTESIAN_POINT('',(0.,0.,0.));
#182=CARTESIAN_POINT('',(0.0250051020408164,-0.2,1.73472347596551E-18));
#183=CARTESIAN_POINT('',(0.0250051020408164,0.,1.73472347596551E-18));
#184=CARTESIAN_POINT('',(2.17060131191757E-5,0.,0.00104165781083953));
#185=CARTESIAN_POINT('',(0.0245,0.,0.025));
#186=CARTESIAN_POINT('',(2.17060131191757E-5,-0.2,0.00104165781083953));
#187=CARTESIAN_POINT('',(2.17060131191757E-5,-0.2,0.00104165781083953));
#188=CARTESIAN_POINT('',(0.0250051020408164,-0.2,1.73472347596551E-18));
#189=CARTESIAN_POINT('',(0.0245,-0.2,0.025));
#190=CARTESIAN_POINT('',(0.0245,-0.2,0.025));
#191=CARTESIAN_POINT('',(0.075,-0.2,0.));
#192=CARTESIAN_POINT('',(0.075,0.,0.));
#193=CARTESIAN_POINT('',(0.00102083794975021,0.,0.));
#194=CARTESIAN_POINT('',(0.146406231999115,0.,0.));
#195=CARTESIAN_POINT('',(0.146406231999115,-0.2,0.));
#196=CARTESIAN_POINT('',(0.146406231999115,-0.2,0.));
#197=CARTESIAN_POINT('',(0.075,-0.2,0.));
#198=CARTESIAN_POINT('',(0.00102083794975021,-0.2,0.));
#199=CARTESIAN_POINT('',(0.0010208379497502,0.,0.));
#200=CARTESIAN_POINT('',(0.14690507870228,-0.2,0.00186669023690195));
#201=CARTESIAN_POINT('',(0.14690507870228,0.,0.00186669023690195));
#202=CARTESIAN_POINT('',(0.140357303839149,-0.2,0.00563543685993494));
#203=CARTESIAN_POINT('',(0.140357303839149,0.,0.00563543685993494));
#204=CARTESIAN_POINT('',(0.124687576362715,-0.2,0.012496209545982));
#205=CARTESIAN_POINT('',(0.124687576362715,-2.77555756156289E-17,0.012496209545982));
#206=CARTESIAN_POINT('',(0.0949396815598311,-0.2,0.0201098504734104));
#207=CARTESIAN_POINT('',(0.0949396815598311,0.,0.0201098504734104));
#208=CARTESIAN_POINT('',(0.0608231997392273,-0.2,0.0245659244869096));
#209=CARTESIAN_POINT('',(0.0608231997392273,0.,0.0245659244869096));
#210=CARTESIAN_POINT('',(0.0366001827688772,-0.2,0.0252444730804324));
#211=CARTESIAN_POINT('',(0.0366001827688772,0.,0.0252444730804324));
#212=CARTESIAN_POINT('',(0.0244999999999998,-0.2,0.025));
#213=CARTESIAN_POINT('',(0.0244999999999998,0.,0.025));
#214=CARTESIAN_POINT('',(0.0256112244897959,-0.2,-0.03));
#215=CARTESIAN_POINT('',(0.14690507870228,-0.2,0.00186669023690203));
#216=CARTESIAN_POINT('',(0.14690507870228,-0.2,0.00186669023690205));
#217=CARTESIAN_POINT('',(0.14690507870228,0.,0.00186669023690203));
#218=CARTESIAN_POINT('',(0.0256112244897959,0.,-0.03));
#219=CARTESIAN_POINT('',(0.075,-0.2,0.012538571226535));
#220=CARTESIAN_POINT('',(0.146406231999115,-0.2,0.001));
#221=CARTESIAN_POINT('',(0.0010208379497502,-0.2,0.001));
#222=CARTESIAN_POINT('',(0.075,0.,0.012538571226535));
#223=CARTESIAN_POINT('',(0.146406231999115,0.,0.001));
#224=CARTESIAN_POINT('',(0.0010208379497502,0.,0.001));
#225=CARTESIAN_POINT('',(0.146406231999115,-0.1,0.001));
#226=CARTESIAN_POINT('',(0.0010208379497502,-0.2,0.001));
#227=MECHANICAL_DESIGN_GEOMETRIC_PRESENTATION_REPRESENTATION('',(#118),
#228);
#228=(
GEOMETRIC_REPRESENTATION_CONTEXT(3)
GLOBAL_UNCERTAINTY_ASSIGNED_CONTEXT((#229))
GLOBAL_UNIT_ASSIGNED_CONTEXT((#232,#231,#230))
REPRESENTATION_CONTEXT('Part 1','TOP_LEVEL_ASSEMBLY_PART')
);
#229=UNCERTAINTY_MEASURE_WITH_UNIT(LENGTH_MEASURE(2.E-5),#232,
'DISTANCE_ACCURACY_VALUE','Maximum Tolerance applied to model');
#230=(
NAMED_UNIT(*)
SI_UNIT($,.STERADIAN.)
SOLID_ANGLE_UNIT()
);
#231=(
NAMED_UNIT(*)
PLANE_ANGLE_UNIT()
SI_UNIT($,.RADIAN.)
);
#232=(
LENGTH_UNIT()
NAMED_UNIT(*)
SI_UNIT($,.METRE.)
);
#233=PRODUCT_DEFINITION_SHAPE('','',#234);
#234=PRODUCT_DEFINITION('','',#236,#235);
#235=PRODUCT_DEFINITION_CONTEXT('',#242,'design');
#236=PRODUCT_DEFINITION_FORMATION_WITH_SPECIFIED_SOURCE('','',#238,
 .NOT_KNOWN.);
#237=PRODUCT_RELATED_PRODUCT_CATEGORY('','',(#238));
#238=PRODUCT('Part 1','Part 1','Part 1',(#240));
#239=PRODUCT_CATEGORY('','');
#240=PRODUCT_CONTEXT('',#242,'mechanical');
#241=APPLICATION_PROTOCOL_DEFINITION('international standard',
'ap242_managed_model_based_3d_engineering',2020,#242);
#242=APPLICATION_CONTEXT('managed model based 3d engineering');
ENDSEC;
END-ISO-10303-21;
